<svg xmlns="http://www.w3.org/2000/svg" width="1440" height="800" fill="none" class=" absolute top-0 left-2/4" style="margin-left:-720px"><mask id="bg-spotlight_svg__b" width="1440" height="600" x="0" y="0" maskUnits="userSpaceOnUse" style="mask-type:alpha"><path fill="url(#bg-spotlight_svg__a)" d="M0 0h1440v600H0z"></path></mask><g mask="url(#bg-spotlight_svg__b)"><path fill="#EBEEFF" fill-opacity="0.7" fill-rule="evenodd" d="M1-23h4v38H1zm4 39H0v-40h1439v40H5m1404-1v-38h-38v38zm1-38v38h28v-38zm-78 0h38v38h-38zm-1 38v-38h-38v38zm-77-38h38v38h-38zm-1 38v-38h-38v38zm-77-38h38v38h-38zm-1 38v-38h-38v38zm-77-38h38v38h-38zm-1 38v-38h-38v38zm-77-38h38v38h-38zm-1 38v-38h-38v38zm-77-38h38v38h-38zm-1 38v-38h-38v38zm-77-38h38v38h-38zm-1 38v-38h-38v38zm-77-38h38v38h-38zm-1 38v-38h-38v38zm-77-38h38v38h-38zm-1 38v-38h-38v38zm-77-38h38v38h-38zm-1 38v-38h-38v38zm-77-38h38v38h-38zm-1 38v-38h-38v38zm-77-38h38v38h-38zm-1 38v-38h-38v38zm-77-38h38v38h-38zm-1 38v-38h-38v38zm-77-38h38v38h-38zm-1 38v-38h-38v38zm-77-38h38v38h-38zm-1 38v-38h-38v38zm-77-38h38v38h-38zm-1 38v-38h-38v38zM84-23h38v38H84zm-1 38v-38H45v38zM6-23h38v38H6z" clip-rule="evenodd"></path><path fill="#EBEEFF" fill-opacity="0.7" fill-rule="evenodd" d="M1 16h4v38H1zm4 39H0V15h1439v40H5m1404-1V16h-38v38zm1-38v38h28V16zm-78 0h38v38h-38zm-1 38V16h-38v38zm-77-38h38v38h-38zm-1 38V16h-38v38zm-77-38h38v38h-38zm-1 38V16h-38v38zm-77-38h38v38h-38zm-1 38V16h-38v38zm-77-38h38v38h-38zm-1 38V16h-38v38zm-77-38h38v38h-38zm-1 38V16h-38v38zm-77-38h38v38h-38zm-1 38V16h-38v38zm-77-38h38v38h-38zm-1 38V16h-38v38zm-77-38h38v38h-38zm-1 38V16h-38v38zm-77-38h38v38h-38zm-1 38V16h-38v38zm-77-38h38v38h-38zm-1 38V16h-38v38zm-77-38h38v38h-38zm-1 38V16h-38v38zm-77-38h38v38h-38zm-1 38V16h-38v38zm-77-38h38v38h-38zm-1 38V16h-38v38zm-77-38h38v38h-38zm-1 38V16h-38v38zm-77-38h38v38h-38zm-1 38V16h-38v38zM84 16h38v38H84zm-1 38V16H45v38zM6 16h38v38H6z" clip-rule="evenodd"></path><path fill="#EBEEFF" fill-opacity="0.7" fill-rule="evenodd" d="M1 55h4v38H1zm4 39H0V54h1439v40H5m1404-1V55h-38v38zm1-38v38h28V55zm-78 0h38v38h-38zm-1 38V55h-38v38zm-77-38h38v38h-38zm-1 38V55h-38v38zm-77-38h38v38h-38zm-1 38V55h-38v38zm-77-38h38v38h-38zm-1 38V55h-38v38zm-77-38h38v38h-38zm-1 38V55h-38v38zm-77-38h38v38h-38zm-1 38V55h-38v38zm-77-38h38v38h-38zm-1 38V55h-38v38zm-77-38h38v38h-38zm-1 38V55h-38v38zm-77-38h38v38h-38zm-1 38V55h-38v38zm-77-38h38v38h-38zm-1 38V55h-38v38zm-77-38h38v38h-38zm-1 38V55h-38v38zm-77-38h38v38h-38zm-1 38V55h-38v38zm-77-38h38v38h-38zm-1 38V55h-38v38zm-77-38h38v38h-38zm-1 38V55h-38v38zm-77-38h38v38h-38zm-1 38V55h-38v38zm-77-38h38v38h-38zm-1 38V55h-38v38zM84 55h38v38H84zm-1 38V55H45v38zM6 55h38v38H6z" clip-rule="evenodd"></path><path fill="#EBEEFF" fill-opacity="0.7" fill-rule="evenodd" d="M1 94h4v38H1zm4 39H0V93h1439v40H5m1404-1V94h-38v38zm1-38v38h28V94zm-78 0h38v38h-38zm-1 38V94h-38v38zm-77-38h38v38h-38zm-1 38V94h-38v38zm-77-38h38v38h-38zm-1 38V94h-38v38zm-77-38h38v38h-38zm-1 38V94h-38v38zm-77-38h38v38h-38zm-1 38V94h-38v38zm-77-38h38v38h-38zm-1 38V94h-38v38zm-77-38h38v38h-38zm-1 38V94h-38v38zm-77-38h38v38h-38zm-1 38V94h-38v38zm-77-38h38v38h-38zm-1 38V94h-38v38zm-77-38h38v38h-38zm-1 38V94h-38v38zm-77-38h38v38h-38zm-1 38V94h-38v38zm-77-38h38v38h-38zm-1 38V94h-38v38zm-77-38h38v38h-38zm-1 38V94h-38v38zm-77-38h38v38h-38zm-1 38V94h-38v38zm-77-38h38v38h-38zm-1 38V94h-38v38zm-77-38h38v38h-38zm-1 38V94h-38v38zM84 94h38v38H84zm-1 38V94H45v38zM6 94h38v38H6z" clip-rule="evenodd"></path><path fill="#EBEEFF" fill-opacity="0.7" fill-rule="evenodd" d="M1 133h4v38H1zm4 39H0v-40h1439v40H5m1404-1v-38h-38v38zm1-38v38h28v-38zm-78 0h38v38h-38zm-1 38v-38h-38v38zm-77-38h38v38h-38zm-1 38v-38h-38v38zm-77-38h38v38h-38zm-1 38v-38h-38v38zm-77-38h38v38h-38zm-1 38v-38h-38v38zm-77-38h38v38h-38zm-1 38v-38h-38v38zm-77-38h38v38h-38zm-1 38v-38h-38v38zm-77-38h38v38h-38zm-1 38v-38h-38v38zm-77-38h38v38h-38zm-1 38v-38h-38v38zm-77-38h38v38h-38zm-1 38v-38h-38v38zm-77-38h38v38h-38zm-1 38v-38h-38v38zm-77-38h38v38h-38zm-1 38v-38h-38v38zm-77-38h38v38h-38zm-1 38v-38h-38v38zm-77-38h38v38h-38zm-1 38v-38h-38v38zm-77-38h38v38h-38zm-1 38v-38h-38v38zm-77-38h38v38h-38zm-1 38v-38h-38v38zm-77-38h38v38h-38zm-1 38v-38h-38v38zm-77-38h38v38H84zm-1 38v-38H45v38zM6 133h38v38H6z" clip-rule="evenodd"></path><path fill="#EBEEFF" fill-opacity="0.7" fill-rule="evenodd" d="M1 172h4v38H1zm4 39H0v-40h1439v40H5m1404-1v-38h-38v38zm1-38v38h28v-38zm-78 0h38v38h-38zm-1 38v-38h-38v38zm-77-38h38v38h-38zm-1 38v-38h-38v38zm-77-38h38v38h-38zm-1 38v-38h-38v38zm-77-38h38v38h-38zm-1 38v-38h-38v38zm-77-38h38v38h-38zm-1 38v-38h-38v38zm-77-38h38v38h-38zm-1 38v-38h-38v38zm-77-38h38v38h-38zm-1 38v-38h-38v38zm-77-38h38v38h-38zm-1 38v-38h-38v38zm-77-38h38v38h-38zm-1 38v-38h-38v38zm-77-38h38v38h-38zm-1 38v-38h-38v38zm-77-38h38v38h-38zm-1 38v-38h-38v38zm-77-38h38v38h-38zm-1 38v-38h-38v38zm-77-38h38v38h-38zm-1 38v-38h-38v38zm-77-38h38v38h-38zm-1 38v-38h-38v38zm-77-38h38v38h-38zm-1 38v-38h-38v38zm-77-38h38v38h-38zm-1 38v-38h-38v38zm-77-38h38v38H84zm-1 38v-38H45v38zM6 172h38v38H6z" clip-rule="evenodd"></path><path fill="#EBEEFF" fill-opacity="0.7" fill-rule="evenodd" d="M1 211h4v38H1zm4 39H0v-40h1439v40H5m1404-1v-38h-38v38zm1-38v38h28v-38zm-78 0h38v38h-38zm-1 38v-38h-38v38zm-77-38h38v38h-38zm-1 38v-38h-38v38zm-77-38h38v38h-38zm-1 38v-38h-38v38zm-77-38h38v38h-38zm-1 38v-38h-38v38zm-77-38h38v38h-38zm-1 38v-38h-38v38zm-77-38h38v38h-38zm-1 38v-38h-38v38zm-77-38h38v38h-38zm-1 38v-38h-38v38zm-77-38h38v38h-38zm-1 38v-38h-38v38zm-77-38h38v38h-38zm-1 38v-38h-38v38zm-77-38h38v38h-38zm-1 38v-38h-38v38zm-77-38h38v38h-38zm-1 38v-38h-38v38zm-77-38h38v38h-38zm-1 38v-38h-38v38zm-77-38h38v38h-38zm-1 38v-38h-38v38zm-77-38h38v38h-38zm-1 38v-38h-38v38zm-77-38h38v38h-38zm-1 38v-38h-38v38zm-77-38h38v38h-38zm-1 38v-38h-38v38zm-77-38h38v38H84zm-1 38v-38H45v38zM6 211h38v38H6z" clip-rule="evenodd"></path><path fill="#EBEEFF" fill-opacity="0.7" fill-rule="evenodd" d="M1 250h4v38H1zm4 39H0v-40h1439v40H5m1404-1v-38h-38v38zm1-38v38h28v-38zm-78 0h38v38h-38zm-1 38v-38h-38v38zm-77-38h38v38h-38zm-1 38v-38h-38v38zm-77-38h38v38h-38zm-1 38v-38h-38v38zm-77-38h38v38h-38zm-1 38v-38h-38v38zm-77-38h38v38h-38zm-1 38v-38h-38v38zm-77-38h38v38h-38zm-1 38v-38h-38v38zm-77-38h38v38h-38zm-1 38v-38h-38v38zm-77-38h38v38h-38zm-1 38v-38h-38v38zm-77-38h38v38h-38zm-1 38v-38h-38v38zm-77-38h38v38h-38zm-1 38v-38h-38v38zm-77-38h38v38h-38zm-1 38v-38h-38v38zm-77-38h38v38h-38zm-1 38v-38h-38v38zm-77-38h38v38h-38zm-1 38v-38h-38v38zm-77-38h38v38h-38zm-78 0h38v38h-38zm-1 38v-38h-38v38zm-77-38h38v38h-38zm-1 38v-38h-38v38zm-77-38h38v38H84zm-1 38v-38H45v38zM6 250h38v38H6z" clip-rule="evenodd"></path><path fill="#EBEEFF" fill-opacity="0.7" fill-rule="evenodd" d="M1 289h4v38H1zm4 39H0v-40h1439v40H5m1404-1v-38h-38v38zm1-38v38h28v-38zm-78 0h38v38h-38zm-1 38v-38h-38v38zm-77-38h38v38h-38zm-1 38v-38h-38v38zm-77-38h38v38h-38zm-78 0h38v38h-38zm-1 38v-38h-38v38zm-77-38h38v38h-38zm-1 38v-38h-38v38zm-77-38h38v38h-38zm-1 38v-38h-38v38zm-77-38h38v38h-38zm-1 38v-38h-38v38zm-77-38h38v38h-38zm-1 38v-38h-38v38zm-77-38h38v38h-38zm-1 38v-38h-38v38zm-77-38h38v38h-38zm-1 38v-38h-38v38zm-77-38h38v38h-38zm-1 38v-38h-38v38zm-77-38h38v38h-38zm-1 38v-38h-38v38zm-77-38h38v38h-38zm-1 38v-38h-38v38zm-77-38h38v38h-38zm-1 38v-38h-38v38zm-77-38h38v38h-38zm-1 38v-38h-38v38zm-77-38h38v38h-38zm-1 38v-38h-38v38zm-77-38h38v38H84zm-1 38v-38H45v38zM6 289h38v38H6z" clip-rule="evenodd"></path><path fill="#EBEEFF" fill-opacity="0.7" fill-rule="evenodd" d="M1 328h4v38H1zm4 39H0v-40h1439v40H5m1404-1v-38h-38v38zm1-38v38h28v-38zm-78 0h38v38h-38zm-1 38v-38h-38v38zm-77-38h38v38h-38zm-1 38v-38h-38v38zm-77-38h38v38h-38zm-1 38v-38h-38v38zm-77-38h38v38h-38zm-1 38v-38h-38v38zm-77-38h38v38h-38zm-1 38v-38h-38v38zm-77-38h38v38h-38zm-1 38v-38h-38v38zm-77-38h38v38h-38zm-1 38v-38h-38v38zm-77-38h38v38h-38zm-1 38v-38h-38v38zm-77-38h38v38h-38zm-1 38v-38h-38v38zm-77-38h38v38h-38zm-1 38v-38h-38v38zm-77-38h38v38h-38zm-1 38v-38h-38v38zm-77-38h38v38h-38zm-1 38v-38h-38v38zm-77-38h38v38h-38zm-1 38v-38h-38v38zm-77-38h38v38h-38zm-1 38v-38h-38v38zm-77-38h38v38h-38zm-1 38v-38h-38v38zm-77-38h38v38h-38zm-1 38v-38h-38v38zm-77-38h38v38H84zm-1 38v-38H45v38zM6 328h38v38H6z" clip-rule="evenodd"></path><path fill="#EBEEFF" fill-opacity="0.7" fill-rule="evenodd" d="M1 367h4v38H1zm4 39H0v-40h1439v40H5m1404-1v-38h-38v38zm1-38v38h28v-38zm-78 0h38v38h-38zm-1 38v-38h-38v38zm-77-38h38v38h-38zm-1 38v-38h-38v38zm-77-38h38v38h-38zm-1 38v-38h-38v38zm-77-38h38v38h-38zm-1 38v-38h-38v38zm-77-38h38v38h-38zm-1 38v-38h-38v38zm-77-38h38v38h-38zm-1 38v-38h-38v38zm-77-38h38v38h-38zm-1 38v-38h-38v38zm-77-38h38v38h-38zm-1 38v-38h-38v38zm-77-38h38v38h-38zm-1 38v-38h-38v38zm-77-38h38v38h-38zm-1 38v-38h-38v38zm-77-38h38v38h-38zm-1 38v-38h-38v38zm-77-38h38v38h-38zm-1 38v-38h-38v38zm-77-38h38v38h-38zm-1 38v-38h-38v38zm-77-38h38v38h-38zm-1 38v-38h-38v38zm-77-38h38v38h-38zm-1 38v-38h-38v38zm-77-38h38v38h-38zm-1 38v-38h-38v38zm-77-38h38v38H84zm-1 38v-38H45v38zM6 367h38v38H6z" clip-rule="evenodd"></path><path fill="#EBEEFF" fill-opacity="0.7" fill-rule="evenodd" d="M1 406h4v38H1zm4 39H0v-40h1439v40H5m1404-1v-38h-38v38zm1-38v38h28v-38zm-78 0h38v38h-38zm-1 38v-38h-38v38zm-77-38h38v38h-38zm-1 38v-38h-38v38zm-77-38h38v38h-38zm-1 38v-38h-38v38zm-77-38h38v38h-38zm-1 38v-38h-38v38zm-77-38h38v38h-38zm-1 38v-38h-38v38zm-77-38h38v38h-38zm-1 38v-38h-38v38zm-77-38h38v38h-38zm-1 38v-38h-38v38zm-77-38h38v38h-38zm-1 38v-38h-38v38zm-77-38h38v38h-38zm-1 38v-38h-38v38zm-77-38h38v38h-38zm-1 38v-38h-38v38zm-77-38h38v38h-38zm-1 38v-38h-38v38zm-77-38h38v38h-38zm-1 38v-38h-38v38zm-78 0v-38h-38v38zm-77-38h38v38h-38zm-1 38v-38h-38v38zm-77-38h38v38h-38zm-1 38v-38h-38v38zm-77-38h38v38h-38zm-1 38v-38h-38v38zm-77-38h38v38H84zm-1 38v-38H45v38zM6 406h38v38H6z" clip-rule="evenodd"></path><path fill="#EBEEFF" fill-opacity="0.7" fill-rule="evenodd" d="M1 445h4v38H1zm4 39H0v-40h1439v40H5m1404-1v-38h-38v38zm1-38v38h28v-38zm-78 0h38v38h-38zm-1 38v-38h-38v38zm-77-38h38v38h-38zm-1 38v-38h-38v38zm-77-38h38v38h-38zm-1 38v-38h-38v38zm-77-38h38v38h-38zm-1 38v-38h-38v38zm-77-38h38v38h-38zm-78 0h38v38h-38zm-1 38v-38h-38v38zm-77-38h38v38h-38zm-1 38v-38h-38v38zm-77-38h38v38h-38zm-1 38v-38h-38v38zm-77-38h38v38h-38zm-1 38v-38h-38v38zm-77-38h38v38h-38zm-1 38v-38h-38v38zm-77-38h38v38h-38zm-1 38v-38h-38v38zm-77-38h38v38h-38zm-1 38v-38h-38v38zm-77-38h38v38h-38zm-1 38v-38h-38v38zm-77-38h38v38h-38zm-1 38v-38h-38v38zm-77-38h38v38h-38zm-1 38v-38h-38v38zm-77-38h38v38h-38zm-1 38v-38h-38v38zm-77-38h38v38H84zm-1 38v-38H45v38zM6 445h38v38H6z" clip-rule="evenodd"></path><path fill="#EBEEFF" fill-opacity="0.7" fill-rule="evenodd" d="M1 484h4v38H1zm4 39H0v-40h1439v40H5m1404-1v-38h-38v38zm1-38v38h28v-38zm-78 0h38v38h-38zm-1 38v-38h-38v38zm-77-38h38v38h-38zm-1 38v-38h-38v38zm-77-38h38v38h-38zm-1 38v-38h-38v38zm-77-38h38v38h-38zm-1 38v-38h-38v38zm-77-38h38v38h-38zm-1 38v-38h-38v38zm-77-38h38v38h-38zm-1 38v-38h-38v38zm-77-38h38v38h-38zm-1 38v-38h-38v38zm-77-38h38v38h-38zm-1 38v-38h-38v38zm-77-38h38v38h-38zm-1 38v-38h-38v38zm-77-38h38v38h-38zm-1 38v-38h-38v38zm-77-38h38v38h-38zm-1 38v-38h-38v38zm-77-38h38v38h-38zm-1 38v-38h-38v38zm-77-38h38v38h-38zm-1 38v-38h-38v38zm-77-38h38v38h-38zm-1 38v-38h-38v38zm-77-38h38v38h-38zm-1 38v-38h-38v38zm-77-38h38v38h-38zm-1 38v-38h-38v38zm-77-38h38v38H84zm-1 38v-38H45v38zM6 484h38v38H6z" clip-rule="evenodd"></path><path fill="#EBEEFF" fill-opacity="0.7" fill-rule="evenodd" d="M1 523h4v38H1zm4 39H0v-40h1439v40H5m1404-1v-38h-38v38zm1-38v38h28v-38zm-78 0h38v38h-38zm-1 38v-38h-38v38zm-77-38h38v38h-38zm-1 38v-38h-38v38zm-77-38h38v38h-38zm-1 38v-38h-38v38zm-77-38h38v38h-38zm-1 38v-38h-38v38zm-77-38h38v38h-38zm-1 38v-38h-38v38zm-77-38h38v38h-38zm-1 38v-38h-38v38zm-77-38h38v38h-38zm-1 38v-38h-38v38zm-77-38h38v38h-38zm-1 38v-38h-38v38zm-77-38h38v38h-38zm-1 38v-38h-38v38zm-77-38h38v38h-38zm-1 38v-38h-38v38zm-77-38h38v38h-38zm-1 38v-38h-38v38zm-77-38h38v38h-38zm-1 38v-38h-38v38zm-77-38h38v38h-38zm-1 38v-38h-38v38zm-77-38h38v38h-38zm-1 38v-38h-38v38zm-77-38h38v38h-38zm-1 38v-38h-38v38zm-77-38h38v38h-38zm-1 38v-38h-38v38zm-77-38h38v38H84zm-1 38v-38H45v38zM6 523h38v38H6z" clip-rule="evenodd"></path><path fill="url(#bg-spotlight_svg__c)" d="M705 109c220.362 0 399-41.414 399-92.5S925.362-76 705-76 306-34.586 306 16.5 484.638 109 705 109"></path></g><defs><radialGradient id="bg-spotlight_svg__a" cx="0" cy="0" r="1" gradientTransform="matrix(0 369.706 -887.294 0 720 300)" gradientUnits="userSpaceOnUse"><stop stop-color="#D9D9D9"></stop><stop offset="1" stop-color="#D9D9D9" stop-opacity="0"></stop></radialGradient><radialGradient id="bg-spotlight_svg__c" cx="0" cy="0" r="1" gradientTransform="matrix(0 92.5 -399 0 705 16.5)" gradientUnits="userSpaceOnUse"><stop stop-color="#fff"></stop><stop offset="1" stop-color="#fff" stop-opacity="0"></stop></radialGradient></defs></svg>