<svg xmlns="http://www.w3.org/2000/svg" viewBox="0 0 127.93 123.45"><defs><style>.cls-1{fill:#e1738e;}</style></defs><g id="Layer_2" data-name="Layer 2"><g id="OBJECTS"><path class="cls-1" d="M117.63,46.5l2.52.65a14.84,14.84,0,0,1,6.77,3.48c1.23,1.2,1.32,1.84.37,3.25a22.4,22.4,0,0,1-10.21,8.41c-3.68,1.53-7.29,3.23-11,4.64A41.78,41.78,0,0,1,88.2,69.26a39.14,39.14,0,0,1-12.53-2.91c-1-.42-2.08-.68-3.08-1.11-.83-.37-1.61-.87-2.4-1.32a4.4,4.4,0,0,0-.52-.36c-1.22-.54-1.44-.86-1-2a8.31,8.31,0,0,1,1.24-2.29c4.4-5.42,8.65-11,13.32-16.16a36.18,36.18,0,0,1,21.21-11.49,55.13,55.13,0,0,1,11.9-.81,8.89,8.89,0,0,1,2.7.55,2.56,2.56,0,0,1,1.6,3.18c-.34,1.6-.59,3.22-1,4.81-.32,1.37-.76,2.72-1.15,4.08C118.25,44.4,118,45.38,117.63,46.5Z"/><path class="cls-1" d="M31.55,110.33c-1.77.6-3.36,1.16-5,1.67a12.3,12.3,0,0,1-5.19.33c-1.4-.15-1.95-.72-2-2.11-.13-3.87.27-7.68,2.23-11.09a144.24,144.24,0,0,1,8-13.31A41.56,41.56,0,0,1,52.13,70c1.63-.47,3.24-1,4.88-1.4a17.41,17.41,0,0,1,2.71-.29,3.93,3.93,0,0,0,.48,0c1.58-.28,2-.07,2.21,1.47a22.25,22.25,0,0,1,.24,4.08q-.34,7.68-.84,15.36a45.25,45.25,0,0,1-2.2,11.22,36.59,36.59,0,0,1-9.62,15c-2.28,2.18-4.79,4.13-7.28,6.08a11.7,11.7,0,0,1-3.15,1.7,2.54,2.54,0,0,1-3.44-1.59c-.7-1.53-1.47-3-2.13-4.59-.53-1.25-.94-2.55-1.4-3.83C32.25,112.27,31.91,111.31,31.55,110.33Z"/><path class="cls-1" d="M10.4,47.57C9.13,45.78,7.9,44.3,7,42.65a16.9,16.9,0,0,1-1.52-4.11C5,37,5.49,36.36,7,35.81A21.18,21.18,0,0,1,18.9,34.75a143.85,143.85,0,0,1,14,3.31,41.91,41.91,0,0,1,22.3,16.6c.86,1.26,1.71,2.53,2.57,3.8a5.8,5.8,0,0,1,1.38,2.91.58.58,0,0,0,.16.44c.41.34.78.72.48,1.24a3,3,0,0,1-1.08,1.16,16.49,16.49,0,0,1-3.16,1.32c-5.94,1.61-11.87,3.34-17.88,4.67A37.85,37.85,0,0,1,9,65.41c-2.15-1.3-4.23-2.71-6.28-4.16A9.64,9.64,0,0,1,.57,59.06a2.62,2.62,0,0,1,.56-3.77c1.14-1,2.22-2.1,3.37-3.1s2.27-1.85,3.43-2.76C8.74,48.8,9.57,48.19,10.4,47.57Z"/><path class="cls-1" d="M63.67,8.11c.65-1,1.14-1.78,1.65-2.55A14.44,14.44,0,0,1,70.55.49c1.45-.77,2.12-.67,3.09.57a22.23,22.23,0,0,1,4.91,12.28c.29,3.64.81,7.27,1,10.92a42.45,42.45,0,0,1-9.4,29.25c-.82,1-1.56,2.11-2.42,3.09a25,25,0,0,1-2.13,2c-.15.14-.34.25-.47.4-.79,1-1.16,1.09-2.08.37a8.62,8.62,0,0,1-1.92-2c-3.88-6-8.16-11.76-11.52-18.08a37.13,37.13,0,0,1-4.45-19.07A53,53,0,0,1,48.52,4.1a8.49,8.49,0,0,1,.56-1.18c1-1.87,2.87-2.61,4.75-1A.6.6,0,0,0,54,2c1.68.9,3.42,1.72,5,2.73S62,6.88,63.67,8.11Z"/><path class="cls-1" d="M97.75,109.63c.06,1.13.1,2.05.14,3a14.32,14.32,0,0,1-1.23,7.18c-.74,1.47-1.4,1.8-3,1.34A21.77,21.77,0,0,1,83,114.46c-2.94-3.37-6.1-6.58-8.73-10.18a42,42,0,0,1-8.38-27.94c.07-1.25,0-2.51.14-3.76a25.56,25.56,0,0,1,.53-2.69c0-.15.14-.29.17-.45.08-.44,0-1.16.25-1.29a3,3,0,0,1,1.85-.35,23.11,23.11,0,0,1,4.1,1.07c4.44,1.65,8.88,3.34,13.27,5.11a63.19,63.19,0,0,1,6.07,2.85,36.54,36.54,0,0,1,13.64,12.43,52,52,0,0,1,6.44,14.61,7.62,7.62,0,0,1,.25,2.42,2.52,2.52,0,0,1-2.52,2.5c-1.57.17-3.13.43-4.7.57s-2.93.14-4.4.2Z"/></g></g></svg>